<svg xmlns="http://www.w3.org/2000/svg" viewBox="0 0 96 80" width="96" height="80">
  <defs>
    <linearGradient id="body_1E88E5" x1="0" y1="0" x2="0" y2="1">
      <stop offset="0%" stop-color="#64B5F6" stop-opacity="1"/>
      <stop offset="100%" stop-color="#1E88E5" stop-opacity="1"/>
    </linearGradient>
    <linearGradient id="tab_1E88E5" x1="0" y1="0" x2="0" y2="1">
      <stop offset="0%" stop-color="#E3F2FD" stop-opacity="0.9"/>
      <stop offset="100%" stop-color="#64B5F6" stop-opacity="1"/>
    </linearGradient>
    <linearGradient id="shine_1E88E5" x1="0" y1="0" x2="0" y2="1">
      <stop offset="0%" stop-color="white" stop-opacity="0.55"/>
      <stop offset="100%" stop-color="white" stop-opacity="0.0"/>
    </linearGradient>
    <linearGradient id="glow_1E88E5" x1="0" y1="0" x2="0" y2="1">
      <stop offset="0%" stop-color="#1565C0" stop-opacity="0.0"/>
      <stop offset="100%" stop-color="#1565C0" stop-opacity="0.35"/>
    </linearGradient>
  </defs>
  <path d="M8 26 Q8 22 12 22 L38 22 Q41 22 42 25 L44 28 L84 28 Q88 28 88 32 L88 72 Q88 76 84 76 L12 76 Q8 76 8 72 Z" fill="#1565C0" opacity="0.2" transform="translate(2,2)"/>
  <path d="M8 26 Q8 22 12 22 L38 22 Q41 22 42 25 L44 28 L12 28 Q8 28 8 26 Z" fill="url(#tab_1E88E5)"/>
  <path d="M8 28 L84 28 Q88 28 88 32 L88 72 Q88 76 84 76 L12 76 Q8 76 8 72 Z" fill="url(#body_1E88E5)"/>
  <path d="M8 28 L84 28 Q88 28 88 32 L88 72 Q88 76 84 76 L12 76 Q8 76 8 72 Z" fill="none" stroke="#1565C0" stroke-width="0.8" opacity="0.3"/>
  <path d="M9 28 L83 28 Q87 28 87 32 L87 48 Q47 54 9 48 Z" fill="url(#shine_1E88E5)"/>
  <path d="M8 58 Q48 54 88 58 L88 72 Q88 76 84 76 L12 76 Q8 76 8 72 Z" fill="url(#glow_1E88E5)"/>
  <path d="M8 30 Q9 52 8 72" fill="none" stroke="white" stroke-width="1.5" opacity="0.3"/>
</svg>